<?xml version="1.0" encoding="utf-8"?>
<!-- Generator: Adobe Illustrator 26.1.0, SVG Export Plug-In . SVG Version: 6.00 Build 0)  -->
<svg version="1.1" id="Layer_1" xmlns="http://www.w3.org/2000/svg" xmlns:xlink="http://www.w3.org/1999/xlink" x="0px" y="0px"
	 viewBox="0 0 1920 1080" style="enable-background:new 0 0 1920 1080;" xml:space="preserve">
<style type="text/css">
	.st0{fill:#0E2324;}
	.st1{opacity:0.3;fill:#FFFFFF;enable-background:new    ;}
	.st2{fill:none;stroke:#FFFFFF;stroke-width:15.0684;stroke-linecap:round;stroke-linejoin:round;stroke-miterlimit:10;}
	.st3{opacity:0.15;enable-background:new    ;}
	.st4{fill:none;stroke:#FFFFFF;stroke-width:15.0684;stroke-miterlimit:10;}
	.st5{fill:#FFFFFF;}
</style>
<circle class="st0" cx="922.6" cy="517" r="158"/>
<path class="st1" d="M922.6,393.4c17.7,0,32.1-13.4,34-30.6c-11-2.4-22.3-3.7-34-3.7c-87.3,0-158,70.7-158,158c0,11.7,1.3,23,3.7,34
	c17.2-1.9,30.7-16.3,30.7-34C799,448.8,854.4,393.4,922.6,393.4z"/>
<path class="st2" d="M806.2,458.1c12.9-25.4,33.9-46.1,59.5-58.5"/>
<path class="st3" d="M1076.9,483c-17.2,1.9-30.7,16.3-30.7,34c0,68.2-55.5,123.7-123.7,123.7c-17.7,0-32.1,13.4-34,30.7
	c11,2.4,22.3,3.7,34,3.7c87.3,0,158-70.7,158-158C1080.6,505.3,1079.3,494,1076.9,483z"/>
<circle class="st4" cx="974.1" cy="479.2" r="48.1"/>
<circle class="st4" cx="884.8" cy="568.5" r="41.2"/>
<circle class="st5" cx="884.8" cy="568.5" r="17.2"/>
<circle class="st5" cx="974.1" cy="479.2" r="24"/>
<path class="st5" d="M764.6,517c0,7.5,0.6,14.8,1.5,22l111.5,45.2l12.9-31.8l-125.2-50.8C764.9,506.6,764.6,511.8,764.6,517z"/>
<polygon class="st5" points="881.4,523.9 922.6,468.9 936.3,517 984.4,530.7 926.2,570.6 915.7,537.6 "/>
</svg>
